# This file uses centimeters as units for non-parametric coordinates.

mtllib flat_hill.mtl
g default
v -202.480518 -1.000000 41.580377
v -183.062286 -1.000000 154.448456
v -105.591207 14.332495 1.438181
v -88.449946 14.332495 78.672999
v 191.107255 -1.000000 40.050055
v 56.184830 -1.000000 172.417109
v 147.877507 14.332495 10.343163
v 36.408562 14.332495 115.522916
v -79.587723 14.332495 -59.496027
v -49.126724 14.332495 -89.957025
v -118.988402 -1.000000 -75.445956
v -69.925869 -1.000000 -124.508488
v 11.807503 14.332495 -115.765002
v 147.877507 14.332495 -68.401035
v 191.107255 -1.000000 -92.796997
v 36.896396 -1.000000 -185.014867
vt 0.375000 0.312494
vt 0.625000 0.312494
vt 0.375000 0.437506
vt 0.625000 0.812494
vt 0.437494 0.250000
vt 0.562506 0.000000
vt 0.187494 0.250000
vt 0.187494 -0.000000
vt 0.312506 0.000000
vt 0.437494 0.750000
vt 0.562506 0.500000
vt 0.687494 0.250000
vt 0.812506 0.000000
vt 0.812506 0.250000
vt 0.437494 -0.000000
vt 0.312506 0.250000
vt 0.687494 -0.000000
vt 0.562506 0.250000
vt 0.437494 0.500000
vt 0.375000 0.812494
vt 0.625000 0.437506
vt 0.562506 0.750000
vn -0.013661 0.983224 0.181890
vn -0.035312 0.976165 0.214139
vn -0.017248 0.982161 0.187251
vn -0.017248 0.982161 0.187251
vn -0.035312 0.976165 0.214139
vn -0.084579 0.954316 0.286579
vn -0.139810 0.933534 -0.330101
vn -0.149033 0.950311 -0.273311
vn -0.146270 0.945544 -0.290776
vn -0.146270 0.945544 -0.290776
vn -0.149033 0.950311 -0.273311
vn -0.150277 0.952380 -0.265309
vn 0.334273 0.942476 0.000000
vn 0.334273 0.942476 0.000000
vn 0.334273 0.942476 0.000000
vn 0.334273 0.942476 0.000000
vn 0.334273 0.942476 0.000000
vn 0.334272 0.942477 0.000000
vn -0.312129 0.940656 -0.133200
vn -0.245962 0.957888 -0.148166
vn -0.227235 0.961869 -0.152223
vn -0.227235 0.961869 -0.152223
vn -0.245962 0.957888 -0.148166
vn -0.216557 0.963967 -0.154502
vn 0.000000 1.000000 0.000000
vn 0.000000 1.000000 0.000000
vn 0.000000 1.000000 0.000000
vn 0.000000 1.000000 0.000000
vn 0.000000 1.000000 0.000000
vn 0.000000 1.000000 0.000000
vn 0.000000 1.000000 0.000000
vn 0.000000 1.000000 0.000000
vn 0.000000 1.000000 0.000000
vn 0.000000 1.000000 0.000000
vn 0.000000 1.000000 0.000000
vn 0.000000 1.000000 -0.000000
vn 0.000000 1.000000 -0.000000
vn 0.000000 1.000000 0.000000
vn 0.000000 1.000000 0.000000
vn 0.000000 1.000000 0.000000
vn 0.000000 1.000000 -0.000000
vn 0.000000 1.000000 0.000000
vn -0.140966 0.989717 0.024252
vn -0.141961 0.989493 0.027406
vn -0.141687 0.989556 0.026536
vn -0.141687 0.989556 0.026536
vn -0.141961 0.989493 0.027406
vn -0.143351 0.989160 0.031815
vn 0.189778 0.962582 0.193441
vn 0.194622 0.959427 0.204012
vn 0.190647 0.962028 0.195337
vn 0.190647 0.962028 0.195337
vn 0.194622 0.959427 0.204012
vn 0.196617 0.958083 0.208373
vn -0.257922 0.931103 -0.257922
vn -0.257922 0.931103 -0.257922
vn -0.257922 0.931103 -0.257922
vn -0.257922 0.931103 -0.257922
vn -0.257922 0.931103 -0.257922
vn -0.257922 0.931103 -0.257922
vn 0.067002 0.979010 -0.192486
vn 0.144517 0.953922 -0.262959
vn 0.084473 0.974367 -0.208503
vn 0.084473 0.974367 -0.208503
vn 0.144517 0.953922 -0.262959
vn 0.171930 0.942220 -0.287510
s off
g defense_hill
usemtl terrainSG
f 2/15/1 6/6/2 4/5/3
f 4/5/4 6/6/5 8/18/6
f 10/19/7 13/11/8 12/10/9
f 12/10/10 13/11/11 16/22/12
f 5/17/13 15/13/14 7/12/15
f 7/12/16 15/13/17 14/14/18
f 9/7/19 11/8/20 3/16/21
f 3/16/22 11/8/23 1/9/24
f 14/21/25 13/11/26 7/2/27
f 7/2/28 13/11/29 8/18/30
f 8/18/31 13/11/32 4/5/33
f 4/5/34 13/11/35 3/1/36
f 3/1/37 13/11/38 9/3/39
f 13/11/40 10/19/41 9/3/42
f 2/15/43 4/5/44 1/9/45
f 1/9/46 4/5/47 3/16/48
f 6/6/49 5/17/50 8/18/51
f 8/18/52 5/17/53 7/12/54
f 10/19/55 12/10/56 9/3/57
f 9/3/58 12/10/59 11/20/60
f 13/11/61 14/21/62 16/22/63
f 16/22/64 14/21/65 15/4/66
